Coordinates
version=1
nRows=10
nColumns=34
inDegrees=yes

Units are S.I. units (second, meters, Newtons, ...)
Angles are in degrees.

endheader
time	pelvis_tilt	pelvis_list	pelvis_rotation	pelvis_tx	pelvis_ty	pelvis_tz	hip_flexion_r	hip_adduction_r	hip_rotation_r	knee_angle_r	ankle_angle_r	subtalar_angle_r	mtp_angle_r	hip_flexion_l	hip_adduction_l	hip_rotation_l	knee_angle_l	socket_flexion	socket_adduction	socket_rotation	socket_tx	socket_ty	socket_tz	pros_ankle_rx	pros_ankle_ry	pros_ankle_rz	pros_ankle_tx	pros_ankle_ty	pros_ankle_tz	foot_flex	lumbar_extension	lumbar_bending	lumbar_rotation
      0.00000000	     -7.49383926	    -10.20867103	     -8.80153049	     -0.80301815	      1.03514632	      0.36550105	     -5.76200582	     10.10113845	     -3.54713782	    -12.00917113	      6.33237802	     26.22773406	     29.57751447	     26.86799769	    -11.56000071	      5.33086262	      0.21856526	      1.03172528	     -2.97906858	     -6.60892095	     -0.01852930	     -0.00472705	      0.00461013	      0.00000000	      0.00000000	      0.00000000	      0.00000000	      0.00000000	      0.00000000	     -1.14731596	    -13.03226864	      8.39011534	     16.52683751
      0.00416667	     -7.51933774	    -10.22295775	     -8.90179374	     -0.79812111	      1.03425665	      0.36549139	     -5.96506808	     10.03051514	     -3.50770082	    -12.11986670	      6.33149803	     26.25070570	     29.58673549	     26.92203138	    -11.55655206	      5.36446708	      0.10243015	      1.14431399	     -2.98953234	     -6.65763274	     -0.01831922	     -0.00502566	      0.00473575	      0.00000000	      0.00000000	      0.00000000	      0.00000000	      0.00000000	      0.00000000	     -1.41318072	    -12.98648909	      8.36347818	     16.52601614
      0.00833333	     -7.53264680	    -10.24431984	     -8.97625565	     -0.79311107	      1.03335207	      0.36541871	     -6.17408519	      9.97491042	     -3.42770755	    -12.25343522	      6.34524118	     26.30813649	     29.60913112	     27.00012105	    -11.53426760	      5.40439332	     -0.03255395	      1.27560022	     -2.98128199	     -6.72072561	     -0.01790111	     -0.00539281	      0.00494547	      0.00000000	      0.00000000	      0.00000000	      0.00000000	      0.00000000	      0.00000000	     -1.84016670	    -12.94816757	      8.31170971	     16.53389045
      0.01250000	     -7.60470699	    -10.27636913	     -9.05593064	     -0.78791386	      1.03231913	      0.36534661	     -6.33229866	      9.93732844	     -3.32803378	    -12.39547239	      6.43870018	     26.47046663	     29.69634766	     27.11838214	    -11.52234154	      5.47876670	     -0.16742358	      1.40472704	     -2.98399100	     -6.76048930	     -0.01765847	     -0.00585299	      0.00527022	      0.00000000	      0.00000000	      0.00000000	      0.00000000	      0.00000000	      0.00000000	     -2.31828983	    -12.98622183	      8.22242133	     16.58524212
      0.01666667	     -7.61625876	    -10.28984902	     -9.14420568	     -0.78252601	      1.03134680	      0.36529650	     -6.54568023	      9.85667526	     -3.27643552	    -12.55897119	      6.44967702	     26.52861598	     29.73222827	     27.18028180	    -11.51626531	      5.51911735	     -0.33542289	      1.56895281	     -2.97645052	     -6.81921478	     -0.01727749	     -0.00635134	      0.00528941	      0.00000000	      0.00000000	      0.00000000	      0.00000000	      0.00000000	      0.00000000	     -2.63730814	    -12.92472958	      8.18690151	     16.60046802
      0.02083333	     -7.65478703	    -10.30976795	     -9.21198621	     -0.77711466	      1.03033747	      0.36521298	     -6.72604216	      9.79787611	     -3.20402290	    -12.73127806	      6.49049659	     26.64945382	     29.80655616	     27.27472686	    -11.50290247	      5.57691793	     -0.51619917	      1.74727023	     -2.95831436	     -6.86669589	     -0.01702309	     -0.00694248	      0.00539536	      0.00000000	      0.00000000	      0.00000000	      0.00000000	      0.00000000	      0.00000000	     -3.12151921	    -12.90667919	      8.09834374	     16.63313009
      0.02500000	     -7.72434170	    -10.32280836	     -9.30891055	     -0.77153212	      1.02921546	      0.36512867	     -6.85995611	      9.71470653	     -3.17146437	    -12.95607253	      6.57295295	     26.85058737	     29.95972639	     27.40246521	    -11.50736776	      5.64879477	     -0.70601407	      1.92615904	     -2.95854423	     -6.88749543	     -0.01646557	     -0.00762057	      0.00539536	      0.00000000	      0.00000000	      0.00000000	      0.00000000	      0.00000000	      0.00000000	     -3.53817659	    -12.91837376	      7.99563534	     16.69799801
      0.02916667	     -7.85858892	    -10.12190104	     -9.28076248	     -0.76565732	      1.02769451	      0.36466922	     -6.58156000	      9.23646134	     -4.27401012	    -13.75409184	      6.76362373	     28.58986959	     32.23976297	     27.76317220	    -11.07355412	      5.54063608	     -1.03789709	      2.15947890	     -3.14183063	     -6.73113825	     -0.01513160	     -0.00814068	      0.00691029	      0.00000000	      0.00000000	      0.00000000	      0.00000000	      0.00000000	      0.00000000	     -3.88444060	    -12.63383187	      7.75008735	     16.65063341
      0.03333333	     -7.86977684	    -10.12112294	     -9.34407519	     -0.75991751	      1.02672007	      0.36459118	     -6.79959280	      9.14844204	     -4.18024124	    -13.92164156	      6.73670881	     28.61314685	     32.28124054	     27.80253282	    -11.06908205	      5.59879864	     -1.25319830	      2.37141902	     -3.11864863	     -6.77127229	     -0.01483006	     -0.00891979	      0.00666042	      0.00000000	      0.00000000	      0.00000000	      0.00000000	      0.00000000	      0.00000000	     -4.23568648	    -12.60051566	      7.67346024	     16.64756935
      0.03750000	     -7.88320290	    -10.12019251	     -9.39710148	     -0.75417260	      1.02574078	      0.36450537	     -6.99778817	      9.06615448	     -4.08686292	    -14.11783114	      6.71045108	     28.64540637	     32.33700184	     27.85795257	    -11.06239506	      5.65095900	     -1.49583801	      2.61109739	     -3.08312118	     -6.81262324	     -0.01446260	     -0.00982063	      0.00643591	      0.00000000	      0.00000000	      0.00000000	      0.00000000	      0.00000000	      0.00000000	     -4.59779423	    -12.58116235	      7.56836802	     16.64770872
